<svg width="26" height="22" viewBox="0 0 26 22" fill="none" xmlns="http://www.w3.org/2000/svg">
<g clip-path="url(#clip0_95_7505)">
<path d="M0.0273438 8.85882L25.5997 -0.0059967L12.4117 21.6248L0.0273438 8.85882Z" fill="#ECECEC" stroke="#C66E6E" stroke-width="0.000272609"/>
<path fill-rule="evenodd" clip-rule="evenodd" d="M5.38477 17.0588L9.04987 14.5996L8.06631 12.544L5.44636 14.4185L5.38477 17.0588Z" fill="#666666" stroke="#C66E6E" stroke-width="0.000144498"/>
<path d="M-0.00390625 8.89401L7.32138 11.0038L12.4072 21.6333L-0.00390625 8.89401Z" fill="#CCCCCC" stroke="#C66E6E" stroke-width="0.000105035"/>
<path d="M25.5938 -0.0059967L3.50977 12.4449L5.3775 17.0548L5.43909 14.4144L25.5938 -0.0059967Z" fill="#999999" stroke="#C66E6E" stroke-width="0.000116046"/>
<path d="M0.0273438 8.85882L25.5997 -0.0059967L12.4117 21.6248L0.0273438 8.85882Z" fill="#ECECEC" stroke="#C66E6E" stroke-width="0.000272609"/>
<path fill-rule="evenodd" clip-rule="evenodd" d="M5.38477 17.0588L9.04987 14.5996L8.06631 12.544L5.44636 14.4185L5.38477 17.0588Z" fill="#666666" stroke="#C66E6E" stroke-width="0.000144498"/>
<path d="M-0.00390625 8.89401L7.32138 11.0038L12.4072 21.6333L-0.00390625 8.89401Z" fill="#CCCCCC" stroke="#C66E6E" stroke-width="0.000105035"/>
<path d="M25.5938 -0.0059967L3.50977 12.4449L5.3775 17.0548L5.43909 14.4144L25.5938 -0.0059967Z" fill="#999999" stroke="#C66E6E" stroke-width="0.000116046"/>
<path d="M0.0273438 8.85882L25.5997 -0.0059967L12.4117 21.6248L0.0273438 8.85882Z" fill="#ECECEC" stroke="#C66E6E" stroke-width="0.000272609"/>
<path fill-rule="evenodd" clip-rule="evenodd" d="M5.38477 17.0588L9.04987 14.5996L8.06631 12.544L5.44636 14.4185L5.38477 17.0588Z" fill="#666666" stroke="#C66E6E" stroke-width="0.000144498"/>
<path d="M-0.00390625 8.89401L7.32138 11.0038L12.4072 21.6333L-0.00390625 8.89401Z" fill="#CCCCCC" stroke="#C66E6E" stroke-width="0.000105035"/>
<path d="M25.5938 -0.0059967L3.50977 12.4449L5.3775 17.0548L5.43909 14.4144L25.5938 -0.0059967Z" fill="#999999" stroke="#8A6E6E" stroke-width="0.000116046"/>
<path d="M0.0273438 8.85882L25.5997 -0.0059967L12.4117 21.6248L0.0273438 8.85882Z" fill="#ECECEC" stroke="#8A6E6E" stroke-width="0.000272609"/>
<path fill-rule="evenodd" clip-rule="evenodd" d="M5.38477 17.0588L9.04987 14.5996L8.06631 12.544L5.44636 14.4185L5.38477 17.0588Z" fill="#666666" stroke="#8A6E6E" stroke-width="0.000144498"/>
<path d="M-0.00390625 8.89401L7.32138 11.0038L12.4072 21.6333L-0.00390625 8.89401Z" fill="#CCCCCC" stroke="#8A6E6E" stroke-width="0.000105035"/>
<path d="M25.5938 -0.0059967L3.50977 12.4449L5.3775 17.0548L5.43909 14.4144L25.5938 -0.0059967Z" fill="#999999" stroke="#8A6E6E" stroke-width="0.000116046"/>
<path d="M0.0273438 8.85882L25.5997 -0.0059967L12.4117 21.6248L0.0273438 8.85882Z" fill="#ECECEC" stroke="#8A6E6E" stroke-width="0.000272609"/>
<path fill-rule="evenodd" clip-rule="evenodd" d="M5.38477 17.0588L9.04987 14.5996L8.06631 12.544L5.44636 14.4185L5.38477 17.0588Z" fill="#060449" stroke="#8A6E6E" stroke-width="0.000144498"/>
<path d="M-0.00390625 8.89401L7.32138 11.0038L12.4072 21.6333L-0.00390625 8.89401Z" fill="#060449" stroke="#8A6E6E" stroke-width="0.000105035"/>
<path d="M25.5938 -0.0059967L3.50977 12.4449L5.3775 17.0548L5.43909 14.4144L25.5938 -0.0059967Z" fill="#060449" stroke="#8A6E6E" stroke-width="0.000116046"/>
<path d="M0.0273438 8.85882L25.5997 -0.0059967L12.4117 21.6248L0.0273438 8.85882Z" fill="#44CA92" stroke="#8A6E6E" stroke-width="0.000272609"/>
<path d="M-0.00390625 8.89401L7.32138 11.0038L12.4072 21.6333L-0.00390625 8.89401Z" fill="#44CA92" fill-opacity="0.48" stroke="#8A6E6E" stroke-width="0.000105035"/>
<path d="M25.5938 -0.0059967L3.50977 12.4449L5.3775 17.0548L5.43909 14.4144L25.5938 -0.0059967Z" fill="black" stroke="#8A6E6E" stroke-width="0.000116046"/>
</g>
<defs>
<clipPath id="clip0_95_7505">
<rect width="25.6" height="22.016" fill="white" transform="translate(0 -0.00799561)"/>
</clipPath>
</defs>
</svg>
